<?xml version="1.0" standalone="no"?>
<!DOCTYPE svg PUBLIC "-//W3C//DTD SVG 20010904//EN"
 "http://www.w3.org/TR/2001/REC-SVG-20010904/DTD/svg10.dtd">
<svg version="1.0" xmlns="http://www.w3.org/2000/svg"
 width="1080.000000pt" height="1080.000000pt" viewBox="0 0 1080.000000 1080.000000"
 preserveAspectRatio="xMidYMid meet">
<metadata>
Created by potrace 1.11, written by Peter Selinger 2001-2013
</metadata>
<g transform="translate(0.000000,1080.000000) scale(0.100000,-0.100000)"
fill="#000000" stroke="none">
<path d="M5247 10794 c-1 -1 -69 -5 -151 -8 -82 -4 -152 -8 -155 -10 -3 -2
-43 -7 -87 -10 -45 -4 -93 -9 -105 -11 -13 -2 -51 -6 -83 -10 -32 -3 -62 -7
-65 -9 -3 -2 -31 -7 -61 -11 -30 -3 -62 -8 -71 -11 -10 -3 -30 -6 -45 -8 -16
-3 -92 -18 -169 -36 -77 -17 -149 -33 -161 -35 -11 -3 -83 -22 -160 -44 -536
-152 -1048 -388 -1519 -704 -127 -85 -339 -240 -418 -306 -289 -243 -516 -467
-715 -706 -46 -55 -92 -109 -101 -120 -9 -11 -55 -72 -102 -135 -476 -641
-805 -1374 -960 -2140 -17 -85 -32 -166 -34 -180 -2 -14 -6 -38 -9 -55 -3 -16
-8 -52 -12 -80 -3 -27 -8 -58 -9 -67 -2 -9 -7 -48 -10 -85 -4 -37 -8 -78 -10
-91 -12 -75 -20 -293 -20 -542 1 -285 7 -408 30 -590 2 -19 7 -57 10 -85 3
-27 7 -61 10 -75 2 -14 7 -43 10 -65 35 -248 113 -567 207 -854 68 -208 233
-614 283 -696 7 -11 42 -77 79 -147 105 -202 218 -385 366 -592 395 -554 873
-1014 1447 -1392 78 -52 144 -94 146 -94 2 0 44 -24 94 -54 419 -253 1048
-500 1525 -600 216 -45 324 -65 438 -80 71 -9 126 -16 175 -21 28 -3 70 -7 95
-10 209 -22 798 -23 941 0 13 2 53 6 89 9 372 33 840 138 1230 275 668 235
1302 612 1830 1087 76 69 323 318 397 400 629 701 1061 1545 1262 2464 21 96
41 205 47 250 1 14 5 39 8 55 3 17 8 48 11 70 4 22 8 51 10 65 2 14 7 52 10
85 4 33 8 76 11 95 25 217 25 875 -1 1042 -2 13 -6 54 -10 92 -4 38 -8 79 -10
90 -2 12 -6 39 -10 61 -6 44 -12 85 -20 130 -3 17 -8 46 -11 65 -27 182 -122
544 -208 795 -72 212 -116 319 -230 560 -502 1065 -1375 1961 -2431 2495 -174
88 -271 133 -366 170 -30 12 -67 28 -84 35 -71 32 -451 161 -530 180 -11 3
-83 21 -160 40 -77 20 -151 38 -165 40 -14 3 -38 7 -55 11 -16 3 -48 9 -70 14
-46 10 -207 36 -280 45 -27 4 -61 8 -75 11 -14 2 -54 6 -90 10 -36 3 -79 7
-96 9 -98 12 -617 27 -627 19z m400 -488 c79 -3 153 -8 165 -10 13 -3 55 -7
93 -10 75 -6 253 -29 315 -41 14 -3 54 -10 90 -16 36 -6 112 -22 170 -36 58
-14 112 -26 120 -28 173 -37 559 -168 760 -258 633 -282 1184 -672 1635 -1159
116 -125 140 -152 244 -283 310 -387 557 -811 739 -1270 45 -114 114 -313 136
-395 8 -30 24 -88 36 -128 29 -103 82 -344 95 -432 3 -19 8 -45 11 -58 5 -24
21 -143 30 -227 3 -27 7 -63 9 -80 24 -175 24 -829 0 -955 -2 -10 -6 -47 -10
-82 -3 -35 -10 -90 -15 -123 -5 -33 -12 -78 -15 -100 -3 -22 -9 -53 -12 -70
-3 -16 -7 -39 -9 -50 -1 -11 -8 -45 -14 -75 -6 -30 -14 -66 -16 -80 -20 -100
-140 -518 -154 -533 -3 -4 -7 7 -7 25 0 18 -3 69 -7 113 -41 493 -293 974
-676 1289 -74 61 -176 136 -185 136 -2 0 -21 12 -42 26 -89 61 -326 167 -448
200 -90 25 -220 53 -259 56 -22 1 -41 8 -44 16 -3 8 -6 553 -6 1211 l-1 1196
-1052 1 -1053 1 -1 -2051 c0 -1128 -3 -2060 -5 -2071 -4 -16 -8 -1819 -5
-2027 l1 -48 1038 4 c570 3 1048 6 1062 9 14 3 69 12 124 21 54 10 109 21 122
26 13 5 24 8 24 5 0 -8 234 77 318 116 47 22 86 38 88 36 5 -4 -210 -221 -317
-319 -648 -596 -1466 -1015 -2314 -1187 -172 -35 -172 -35 -325 -56 -167 -23
-166 -23 -270 -30 -52 -4 -111 -9 -130 -11 -43 -4 -471 -4 -555 0 -58 3 -143
11 -250 21 -46 5 -87 10 -155 20 -14 2 -43 6 -65 10 -23 3 -50 7 -60 9 -11 2
-58 11 -105 20 -47 9 -94 18 -105 20 -11 3 -53 12 -93 20 -160 35 -550 155
-624 192 -15 8 -31 15 -35 15 -35 5 -279 113 -448 199 -323 164 -635 369 -905
594 -129 107 -128 106 -203 176 -549 510 -972 1126 -1241 1809 -75 191 -163
459 -191 581 -2 8 -10 42 -18 75 -8 33 -18 78 -23 100 -4 22 -8 45 -10 50 -5
20 -43 231 -49 275 -3 25 -8 56 -10 70 -27 187 -39 380 -39 650 0 304 11 464
49 715 7 50 16 106 19 126 10 69 57 285 82 377 14 51 27 100 29 110 2 9 16 55
30 102 15 47 30 96 34 110 91 292 274 686 472 1015 105 175 330 486 439 606
l39 44 1 -2802 c0 -1542 3 -2803 8 -2804 4 0 476 -1 1050 -2 1036 -2 1043 -2
1047 18 2 11 3 1405 3 3098 l-1 3077 -756 0 -756 1 30 25 c141 118 435 321
620 429 228 134 550 285 798 375 160 58 449 143 560 166 10 2 26 5 35 8 9 3
31 8 47 11 17 2 41 7 55 10 59 13 118 24 160 30 25 3 68 10 95 15 28 5 73 11
100 15 28 3 70 7 95 10 67 8 150 14 300 21 74 4 136 7 137 8 3 2 185 -2 330
-8z m2647 -5821 c262 -56 481 -262 553 -520 7 -27 16 -95 20 -151 18 -293
-146 -562 -418 -688 -188 -87 -409 -88 -592 -4 -272 125 -433 383 -423 678 2
58 7 116 11 130 3 14 7 30 9 35 17 68 62 162 111 230 114 160 283 264 485 298
34 5 208 0 244 -8z"/>
<path d="M3971 8070 c-4 -3 -7 -1396 -6 -3096 l0 -3091 1053 0 1052 0 1 21 c0
28 0 6114 0 6146 l-1 25 -1046 0 c-575 0 -1049 -2 -1053 -5z"/>
</g>
</svg>
