<?xml version="1.0" encoding="utf-8"?>
<!-- Generator: Adobe Illustrator 24.0.1, SVG Export Plug-In . SVG Version: 6.00 Build 0)  -->
<svg version="1.1" id="Layer_1" xmlns="http://www.w3.org/2000/svg" xmlns:xlink="http://www.w3.org/1999/xlink" x="0px" y="0px"
	 viewBox="0 0 260 260" style="enable-background:new 0 0 260 260;" xml:space="preserve">
<style type="text/css">
	.st0{fill:#64D28B;}
	.st1{fill:#4BB772;}
	.st2{fill:#3C815E;}
	.st3{fill:#ACE4B1;}
	.st4{fill:#4B935C;}
	.st5{fill:#64BE83;}
	.st6{fill:#FCF4FB;}
</style>
<g>
	<g>
		<path class="st0" d="M215,88.9L215,88.9c-4.6,0-8.4-3.8-8.4-8.4V73c0-4.6,3.8-8.4,8.4-8.4l0,0c4.6,0,8.4,3.8,8.4,8.4v7.5
			C223.4,85.1,219.6,88.9,215,88.9z"/>
		<path class="st1" d="M207.5,82.9c-0.8,8.9-3.7,15.9-8.8,20.8c-10,9.6-25.5,8.9-25.9,8.9c-4.4-0.3-8.2,3-8.5,7.4
			c-0.3,4.4,3,8.2,7.4,8.5c0.2,0,0.9,0.1,2.1,0.1c5.9,0,23.1-1.1,35.8-13.2c8.4-8,13-18.9,13.9-32.5H207.5z"/>
		<g>
			<path class="st2" d="M210.5,114.5c0.7-0.7,1.4-1.4,2-2.2l-11.9-10.8c-0.6,0.8-1.3,1.5-2,2.1c0,0,0,0-0.1,0.1L210.5,114.5z"/>
			<path class="st2" d="M205.6,92.3c-0.3,1-0.7,2-1.2,3l17,0c0.3-1,0.5-2,0.7-3L205.6,92.3z"/>
			<path class="st2" d="M194.8,124.7c0.9-0.4,1.8-0.8,2.8-1.2l-6.4-14.7c-0.9,0.4-1.8,0.8-2.8,1.2L194.8,124.7z"/>
		</g>
		<rect x="204.4" y="77.6" class="st2" width="22" height="8.2"/>
		<path class="st3" d="M217.9,76.2c-0.2-0.3-0.3-0.7-0.3-1c0.3-3.2-0.4-5.1-0.4-5.1c-0.3-0.8,0.1-1.7,0.9-1.9
			c0.8-0.3,1.6,0.1,1.9,0.9c0,0.1,0.9,2.5,0.6,6.4c-0.1,0.8-0.8,1.5-1.6,1.4C218.5,76.8,218.1,76.5,217.9,76.2z"/>
	</g>
	<g>
		<path class="st0" d="M44.2,88.9L44.2,88.9c4.6,0,8.4-3.8,8.4-8.4V73c0-4.6-3.8-8.4-8.4-8.4l0,0c-4.6,0-8.4,3.8-8.4,8.4v7.5
			C35.8,85.1,39.6,88.9,44.2,88.9z"/>
		<path class="st1" d="M51.8,82.9c0.8,8.9,3.7,15.9,8.8,20.8c10,9.6,25.5,8.9,25.9,8.9c4.4-0.3,8.2,3,8.5,7.4c0.3,4.4-3,8.2-7.4,8.5
			c-0.2,0-0.9,0.1-2.1,0.1c-5.9,0-23.1-1.1-35.8-13.2c-8.4-8-13-18.9-13.9-32.5H51.8z"/>
		<g>
			<path class="st2" d="M48.8,114.5c-0.7-0.7-1.4-1.4-2-2.2l11.9-10.8c0.6,0.8,1.3,1.5,2,2.1c0,0,0,0,0.1,0.1L48.8,114.5z"/>
			<path class="st2" d="M53.6,92.3c0.3,1,0.7,2,1.2,3l-17,0c-0.3-1-0.5-2-0.7-3L53.6,92.3z"/>
			<path class="st2" d="M64.4,124.7c-0.9-0.4-1.8-0.8-2.8-1.2l6.4-14.7c0.9,0.4,1.8,0.8,2.8,1.2L64.4,124.7z"/>
		</g>
		
			<rect x="32.8" y="77.6" transform="matrix(-1 -1.224647e-16 1.224647e-16 -1 87.6664 163.5322)" class="st2" width="22" height="8.2"/>
		<path class="st3" d="M41.4,76.2c0.2-0.3,0.3-0.7,0.3-1c-0.3-3.2,0.4-5.1,0.4-5.1c0.3-0.8-0.1-1.7-0.9-1.9
			c-0.8-0.3-1.6,0.1-1.9,0.9c0,0.1-0.9,2.5-0.6,6.4c0.1,0.8,0.8,1.5,1.6,1.4C40.7,76.8,41.1,76.5,41.4,76.2z"/>
	</g>
	<rect x="115.2" y="92.9" class="st2" width="30.5" height="12"/>
	<g>
		<g>
			<rect x="109.7" y="172.8" class="st0" width="11.3" height="39.5"/>
			<rect x="109.7" y="182.1" class="st1" width="11.3" height="2.8"/>
			<rect x="109.7" y="193.1" class="st1" width="11.3" height="2.8"/>
			<rect x="109.7" y="202.6" class="st1" width="11.3" height="2.8"/>
		</g>
		<g>
			<path class="st2" d="M103.3,166.3c0.6,4.7,4.6,8.4,9.4,8.4h6.7c4.8,0,8.9-3.7,9.4-8.4H103.3z"/>
			<g>
				<rect x="102.5" y="161.9" class="st0" width="27.2" height="6.2"/>
				<rect x="102.5" y="161.3" class="st0" width="27.2" height="0.6"/>
				<rect x="106.4" y="161.9" class="st1" width="20.1" height="6.2"/>
				<rect x="118.9" y="161.9" class="st2" width="3.2" height="6.2"/>
				<rect x="109.3" y="161.9" class="st2" width="9.8" height="6.2"/>
			</g>
		</g>
		<g>
			<path class="st2" d="M127.8,209.7c-0.6-4.7-4.6-8.4-9.4-8.4h-6.7c-4.8,0-8.9,3.7-9.4,8.4H127.8z"/>
			<g>
				
					<rect x="101.5" y="207.9" transform="matrix(-1 -1.224647e-16 1.224647e-16 -1 230.0903 421.9821)" class="st0" width="27.2" height="6.2"/>
				
					<rect x="101.5" y="214.1" transform="matrix(-1 -1.224647e-16 1.224647e-16 -1 230.0903 428.7501)" class="st0" width="27.2" height="0.6"/>
				
					<rect x="104.6" y="207.9" transform="matrix(-1 -1.224647e-16 1.224647e-16 -1 229.3358 421.9821)" class="st1" width="20.1" height="6.2"/>
				
					<rect x="109" y="207.9" transform="matrix(-1 -1.224647e-16 1.224647e-16 -1 221.211 421.9821)" class="st2" width="3.2" height="6.2"/>
			</g>
		</g>
	</g>
	<g>
		<g>
			<rect x="141.4" y="172.8" class="st0" width="11.3" height="39.5"/>
			<rect x="141.4" y="182.1" class="st1" width="11.3" height="2.8"/>
			<rect x="141.4" y="193.1" class="st1" width="11.3" height="2.8"/>
			<rect x="141.4" y="202.6" class="st1" width="11.3" height="2.8"/>
		</g>
		<g>
			<path class="st2" d="M134.9,166.3c0.6,4.7,4.6,8.4,9.4,8.4h6.7c4.8,0,8.9-3.7,9.4-8.4H134.9z"/>
			<g>
				<rect x="134.1" y="161.9" class="st0" width="27.2" height="6.2"/>
				<rect x="134.1" y="161.3" class="st0" width="27.2" height="0.6"/>
				<rect x="138" y="161.9" class="st1" width="20.1" height="6.2"/>
				<rect x="150.6" y="161.9" class="st2" width="3.2" height="6.2"/>
				<rect x="141" y="161.9" class="st2" width="9.8" height="6.2"/>
			</g>
		</g>
		<g>
			<path class="st2" d="M159.5,209.7c-0.6-4.7-4.6-8.4-9.4-8.4h-6.7c-4.8,0-8.9,3.7-9.4,8.4H159.5z"/>
			<g>
				
					<rect x="133.1" y="207.9" transform="matrix(-1 -1.224647e-16 1.224647e-16 -1 293.4236 421.9821)" class="st0" width="27.2" height="6.2"/>
				
					<rect x="133.1" y="214.1" transform="matrix(-1 -1.224647e-16 1.224647e-16 -1 293.4236 428.7501)" class="st0" width="27.2" height="0.6"/>
				
					<rect x="136.3" y="207.9" transform="matrix(-1 -1.224647e-16 1.224647e-16 -1 292.6693 421.9821)" class="st1" width="20.1" height="6.2"/>
				
					<rect x="140.7" y="207.9" transform="matrix(-1 -1.224647e-16 1.224647e-16 -1 284.5444 421.9821)" class="st2" width="3.2" height="6.2"/>
			</g>
		</g>
	</g>
	<g>
		<path class="st0" d="M172.3,95H91c-3.5,0-6.3-2.8-6.3-6.3V52.5c0-3.5,2.8-6.3,6.3-6.3h81.3c3.5,0,6.3,2.8,6.3,6.3v36.1
			C178.7,92.1,175.8,95,172.3,95z"/>
		<path class="st1" d="M165.7,89.4H97.6c-3.5,0-6.3-2.8-6.3-6.3v-25c0-3.5,2.8-6.3,6.3-6.3h68.1c3.5,0,6.3,2.8,6.3,6.3v25
			C172.1,86.5,169.2,89.4,165.7,89.4z"/>
		<g>
			<g>
				<path class="st0" d="M98.6,57.4c0,0.9-0.7,1.5-1.5,1.5s-1.5-0.7-1.5-1.5s0.7-1.5,1.5-1.5S98.6,56.5,98.6,57.4z"/>
				<path class="st0" d="M98.6,84.6c0,0.9-0.7,1.5-1.5,1.5s-1.5-0.7-1.5-1.5c0-0.9,0.7-1.5,1.5-1.5S98.6,83.7,98.6,84.6z"/>
			</g>
			<g>
				<path class="st0" d="M167.8,57.4c0,0.9-0.7,1.5-1.5,1.5c-0.9,0-1.5-0.7-1.5-1.5s0.7-1.5,1.5-1.5
					C167.1,55.8,167.8,56.5,167.8,57.4z"/>
				<path class="st0" d="M167.8,84.6c0,0.9-0.7,1.5-1.5,1.5c-0.9,0-1.5-0.7-1.5-1.5c0-0.9,0.7-1.5,1.5-1.5
					C167.1,83,167.8,83.7,167.8,84.6z"/>
			</g>
		</g>
		<g>
			<g>
				
					<ellipse transform="matrix(0.7071 -0.7071 0.7071 0.7071 -17.1292 103.5236)" class="st4" cx="116.4" cy="72.4" rx="14.4" ry="14.4"/>
				
					<ellipse transform="matrix(0.7071 -0.7071 0.7071 0.7071 -15.9451 101.2809)" class="st0" cx="114.3" cy="69.9" rx="14.4" ry="14.4"/>
				
					<ellipse transform="matrix(0.7071 -0.7071 0.7071 0.7071 -15.9451 101.2809)" class="st5" cx="114.3" cy="69.9" rx="10.3" ry="10.3"/>
				
					<ellipse transform="matrix(0.7071 -0.7071 0.7071 0.7071 -15.9451 101.2809)" class="st4" cx="114.3" cy="69.9" rx="9.3" ry="9.3"/>
				
					<ellipse transform="matrix(0.7344 -0.6787 0.6787 0.7344 -17.0817 96.1216)" class="st6" cx="114.3" cy="69.9" rx="7.6" ry="7.6"/>
				<path class="st1" d="M119,69.9c0,2.6-2.1,4.7-4.7,4.7c-2.6,0-4.7-2.1-4.7-4.7c0-2.6,2.1-4.7,4.7-4.7
					C116.9,65.2,119,67.3,119,69.9z"/>
			</g>
			<g>
				
					<ellipse transform="matrix(0.2312 -0.9729 0.9729 0.2312 44.1157 200.7034)" class="st4" cx="149" cy="72.4" rx="14.4" ry="14.4"/>
				
					<ellipse transform="matrix(0.2283 -0.9736 0.9736 0.2283 45.34 196.9804)" class="st0" cx="146.9" cy="69.9" rx="14.4" ry="14.4"/>
				
					<ellipse transform="matrix(0.2287 -0.9735 0.9735 0.2287 45.2878 196.9387)" class="st5" cx="146.9" cy="69.9" rx="10.3" ry="10.3"/>
				
					<ellipse transform="matrix(0.1597 -0.9872 0.9872 0.1597 54.4746 203.7726)" class="st4" cx="146.9" cy="69.9" rx="9.3" ry="9.3"/>
				
					<ellipse transform="matrix(0.1598 -0.9871 0.9871 0.1598 54.4629 203.7645)" class="st6" cx="146.9" cy="69.9" rx="7.6" ry="7.6"/>
				<path class="st1" d="M151.7,69.9c0,2.6-2.1,4.7-4.7,4.7c-2.6,0-4.7-2.1-4.7-4.7c0-2.6,2.1-4.7,4.7-4.7
					C149.5,65.2,151.7,67.3,151.7,69.9z"/>
			</g>
		</g>
	</g>
	<path class="st1" d="M160.7,163.4h-58c-3.5,0-6.3-2.8-6.3-6.3v-30.3c0-3.5,2.8-6.3,6.3-6.3h58c3.5,0,6.3,2.8,6.3,6.3V157
		C167,160.5,164.2,163.4,160.7,163.4z"/>
	<path class="st0" d="M177.7,154.7h-92c-3.5,0-6.3-2.8-6.3-6.3v-41.7c0-3.5,2.8-6.3,6.3-6.3h92c3.5,0,6.3,2.8,6.3,6.3v41.7
		C184,151.9,181.2,154.7,177.7,154.7z"/>
	<g>
		<g>
			<circle class="st1" cx="93.2" cy="112.9" r="1.7"/>
			<circle class="st1" cx="93.2" cy="143.2" r="1.7"/>
		</g>
		<g>
			<path class="st1" d="M171.9,112.9c0,1-0.8,1.7-1.7,1.7c-1,0-1.7-0.8-1.7-1.7c0-1,0.8-1.7,1.7-1.7
				C171.1,111.2,171.9,112,171.9,112.9z"/>
			<path class="st1" d="M171.9,143.2c0,1-0.8,1.7-1.7,1.7c-1,0-1.7-0.8-1.7-1.7c0-1,0.8-1.7,1.7-1.7
				C171.1,141.4,171.9,142.2,171.9,143.2z"/>
		</g>
	</g>
	<path class="st1" d="M102.7,109.9v8h-2.5v2.2h2.5v15.7h-2.5v2.2h2.5v8.2h39.5v-36.5H102.7z M141.2,145.4h-37.5v-7.2h2.2v-2.2h-2.2
		v-15.7h2.2v-2.2h-2.2v-7h37.5V145.4z"/>
	<g>
		<circle class="st1" cx="155.6" cy="118" r="8.2"/>
		<circle class="st2" cx="155.6" cy="118" r="4"/>
	</g>
	<g>
		<circle class="st1" cx="155.6" cy="139.6" r="8.2"/>
		<circle class="st2" cx="155.6" cy="139.6" r="4"/>
	</g>
</g>
</svg>
